<svg xmlns="http://www.w3.org/2000/svg" viewBox="0 0 48 48" id="comparison">
  <g>
    <path d="M19,36V12a3,3,0,0,0-2-2.82V11a4,4,0,0,1-4,4H7a4,4,0,0,1-4-4V9.18A3,3,0,0,0,1,12V36a3,3,0,0,0,3,3H16A3,3,0,0,0,19,36ZM7.05,24.68C9.15,18.37,9,18,10,18s.85.38,2.95,6.68a1,1,0,0,1-1.9.64L11,25c-2.21,0-1.87-.11-2,.32A1,1,0,0,1,7.05,24.68ZM15,36H5a1,1,0,0,1,0-2H15A1,1,0,0,1,15,36Z"></path>
    <polygon points="10 22.16 9.72 23 10.28 23 10 22.16"></polygon>
    <path d="M7 13h6a2 2 0 0 0 2-2V9H5v2A2 2 0 0 0 7 13zM45 9.18V11a4 4 0 0 1-4 4H35a4 4 0 0 1-4-4V9.18A3 3 0 0 0 29 12V36a3 3 0 0 0 3 3H44a3 3 0 0 0 3-3V12A3 3 0 0 0 45 9.18zM35 19a1 1 0 0 1 1-1h2.5a2.5 2.5 0 0 1 2 4 2.5 2.5 0 0 1-2 4H36a1 1 0 0 1-1-1zm8 17H33a1 1 0 0 1 0-2H43A1 1 0 0 1 43 36z"></path>
    <path d="M39 23.5c0-.63-.6-.5-2-.5v1C38.51 24 39 24.12 39 23.5zM39 20.5c0-.63-.6-.5-2-.5v1C38.51 21 39 21.12 39 20.5zM33 11a2 2 0 0 0 2 2h6a2 2 0 0 0 2-2V9H33zM36.4 41.17a22 22 0 0 1-24.8 0 1 1 0 0 0-1.12 1.66 24 24 0 0 0 27 0A1 1 0 0 0 36.4 41.17zM11.6 6.83a22 22 0 0 1 24.8 0 1 1 0 0 0 1.12-1.66 24 24 0 0 0-27 0A1 1 0 0 0 11.6 6.83z"></path>
  </g>
</svg>
